HIERARCHY
ROOT Hips
{
	OFFSET 0.00000 0.00000 0.00000
	CHANNELS 6 Xposition Yposition Zposition Zrotation Yrotation Xrotation 
	JOINT LHipJoint
	{
		OFFSET 0 0 0
		CHANNELS 3 Zrotation Yrotation Xrotation
		JOINT LeftUpLeg
		{
			OFFSET 1.74857 -1.85566 0.69197
			CHANNELS 3 Zrotation Yrotation Xrotation
			JOINT LeftLeg
			{
				OFFSET 2.40003 -6.59403 0.00000
				CHANNELS 3 Zrotation Yrotation Xrotation
				JOINT LeftFoot
				{
					OFFSET 2.82169 -7.75254 0.00000
					CHANNELS 3 Zrotation Yrotation Xrotation
					JOINT LeftToeBase
					{
						OFFSET 0.16466 -0.45240 2.26890
						CHANNELS 3 Zrotation Yrotation Xrotation
						End Site
						{
							OFFSET 0.00000 -0.00000 1.16486
						}
					}
				}
			}
		}
	}
	JOINT RHipJoint
	{
		OFFSET 0 0 0
		CHANNELS 3 Zrotation Yrotation Xrotation
		JOINT RightUpLeg
		{
			OFFSET -1.64169 -1.85566 0.69197
			CHANNELS 3 Zrotation Yrotation Xrotation
			JOINT RightLeg
			{
				OFFSET -2.41814 -6.64379 0.00000
				CHANNELS 3 Zrotation Yrotation Xrotation
				JOINT RightFoot
				{
					OFFSET -2.80588 -7.70911 0.00000
					CHANNELS 3 Zrotation Yrotation Xrotation
					JOINT RightToeBase
					{
						OFFSET -0.19098 -0.52472 2.25401
						CHANNELS 3 Zrotation Yrotation Xrotation
						End Site
						{
							OFFSET -0.00000 -0.00000 1.16333
						}
					}
				}
			}
		}
	}
	JOINT LowerBack
	{
		OFFSET 0 0 0
		CHANNELS 3 Zrotation Yrotation Xrotation
		JOINT Spine
		{
			OFFSET -0.02828 2.14690 -0.11061
			CHANNELS 3 Zrotation Yrotation Xrotation
			JOINT Spine1
			{
				OFFSET -0.00167 2.15299 0.00759
				CHANNELS 3 Zrotation Yrotation Xrotation
				JOINT Neck
				{
					OFFSET 0 0 0
					CHANNELS 3 Zrotation Yrotation Xrotation
					JOINT Neck1
					{
						OFFSET -0.09296 1.90118 0.07197
						CHANNELS 3 Zrotation Yrotation Xrotation
						JOINT Head
						{
							OFFSET 0.08490 1.89526 -0.24604
							CHANNELS 3 Zrotation Yrotation Xrotation
							End Site
							{
								OFFSET 0.03186 1.92109 -0.09483
							}
						}
					}
				}
				JOINT LeftShoulder
				{
					OFFSET 0 0 0
					CHANNELS 3 Zrotation Yrotation Xrotation
					JOINT LeftArm
					{
						OFFSET 3.21569 1.44644 -0.03720
						CHANNELS 3 Zrotation Yrotation Xrotation
						JOINT LeftForeArm
						{
							OFFSET 5.47651 -0.00000 -0.00000
							CHANNELS 3 Zrotation Yrotation Xrotation
							JOINT LeftHand
							{
								OFFSET 3.09058 -0.00000 -0.00000
								CHANNELS 3 Zrotation Yrotation Xrotation
								JOINT LeftFingerBase
								{
									OFFSET 0 0 0
									CHANNELS 3 Zrotation Yrotation Xrotation
									JOINT LeftHandIndex1
									{
										OFFSET 0.77161 -0.00000 -0.00000
										CHANNELS 3 Zrotation Yrotation Xrotation
										End Site
										{
											OFFSET 0.62209 -0.00000 -0.00000
										}
									}
								}
								JOINT LThumb
								{
									OFFSET 0 0 0
									CHANNELS 3 Zrotation Yrotation Xrotation
									End Site
									{
										OFFSET 0.63159 -0.00000 0.63159
									}
								}
							}
						}
					}
				}
				JOINT RightShoulder
				{
					OFFSET 0 0 0
					CHANNELS 3 Zrotation Yrotation Xrotation
					JOINT RightArm
					{
						OFFSET -3.38693 1.28904 -0.07093
						CHANNELS 3 Zrotation Yrotation Xrotation
						JOINT RightForeArm
						{
							OFFSET -5.14182 -0.00000 -0.00000
							CHANNELS 3 Zrotation Yrotation Xrotation
							JOINT RightHand
							{
								OFFSET -3.35565 -0.00000 -0.00000
								CHANNELS 3 Zrotation Yrotation Xrotation
								JOINT RightFingerBase
								{
									OFFSET 0 0 0
									CHANNELS 3 Zrotation Yrotation Xrotation
									JOINT RightHandIndex1
									{
										OFFSET -0.80104 -0.00000 -0.00000
										CHANNELS 3 Zrotation Yrotation Xrotation
										End Site
										{
											OFFSET -0.64582 -0.00000 -0.00000
										}
									}
								}
								JOINT RThumb
								{
									OFFSET 0 0 0
									CHANNELS 3 Zrotation Yrotation Xrotation
									End Site
									{
										OFFSET -0.65568 -0.00000 0.65568
									}
								}
							}
						}
					}
				}
			}
		}
	}
}
MOTION
Frames: 15
Frame Time: .0083333
-0.4307 17.8522 -2.2957 2.0434 -1.6420 -2.2670 0.0000 0.0000 0.0000 -20.5954 -1.8865 -6.1901 1.9354 8.7303 24.9552 0.9573 4.7483 -20.7827 0.4408 -4.2601 -11.8096 0.0000 0.0000 0.0000 17.1215 5.8433 -9.3240 -2.4913 -9.8220 28.4023 -0.7203 -6.1800 -19.4494 -0.1957 2.8488 -7.8581 0.2725 1.8913 5.7308 -1.1507 2.5239 3.1644 -1.4716 1.2753 0.1085 -4.8235 -3.0225 -0.8332 3.3268 -4.2659 15.4374 1.6325 -2.1638 4.9420 0.0000 -0.0000 0.0000 61.0555 -48.8127 -74.2086 44.3349 -50.4384 -21.7248 -0.0000 0.0000 -63.5725 2.9842 23.7561 1.2031 -7.1250 0.0000 -0.0000 -26.4781 51.7591 -4.6807 0.0000 -0.0000 0.0000 -55.4562 44.6272 -64.5581 -42.6137 49.5444 -20.4064 0.0000 -0.0000 -69.6489 -12.1508 19.2135 -4.0530 7.1250 -0.0000 -0.0000 10.4287 -10.6102 8.4755
-0.4249 17.8520 -2.3007 2.1119 -1.6720 -2.2884 0.0000 0.0000 0.0000 -20.6937 -1.8435 -6.1720 1.9285 8.7156 24.9095 0.9515 4.8206 -20.7740 0.4563 -4.3333 -12.0162 0.0000 0.0000 0.0000 17.0204 5.8372 -9.3598 -2.5007 -9.8391 28.4572 -0.7195 -6.1692 -19.4334 -0.1992 2.8739 -7.9280 0.1727 1.8959 5.7506 -1.1353 2.5252 3.1785 -1.4005 1.2747 0.1070 -4.8507 -3.0118 -0.7508 3.2830 -4.2447 15.3130 1.6262 -2.1581 4.8888 0.0000 0.0000 0.0000 60.9031 -48.8845 -74.1309 44.3881 -50.4652 -21.7658 -0.0000 0.0000 -63.4232 3.0126 23.6263 1.2083 -7.1250 0.0000 -0.0000 -26.3757 51.6480 -4.5852 0.0000 0.0000 0.0000 -55.2899 44.6498 -64.3392 -43.0237 49.7627 -20.7189 0.0000 -0.0000 -69.8935 -12.2023 19.1773 -4.0633 7.1250 -0.0000 -0.0000 10.3949 -10.6413 8.4404
-0.4195 17.8522 -2.3052 2.2144 -1.6697 -2.3095 0.0000 0.0000 0.0000 -20.8279 -1.8291 -6.1426 1.9230 8.7038 24.8731 0.9514 4.8408 -20.7857 0.4793 -4.4398 -12.3173 0.0000 0.0000 0.0000 16.8807 5.8655 -9.3600 -2.5059 -9.8486 28.4878 -0.7247 -6.1280 -19.4554 -0.1894 2.8028 -7.7303 0.0380 1.9002 5.7769 -1.1229 2.5244 3.1970 -1.3130 1.2725 0.1049 -4.9294 -3.0237 -0.6918 3.2922 -4.2574 15.1783 1.6427 -2.1685 4.8400 -0.0000 0.0000 0.0000 60.8503 -49.0043 -74.1786 44.3179 -50.4299 -21.7116 -0.0000 0.0000 -63.2079 2.9526 23.5349 1.1799 -7.1250 0.0000 -0.0000 -26.3780 51.5565 -4.5237 -0.0000 0.0000 0.0000 -55.2262 44.6747 -64.1940 -43.2573 49.8856 -20.8973 0.0000 -0.0000 -70.0286 -12.1929 19.0666 -4.0376 7.1250 -0.0000 -0.0000 10.3995 -10.7528 8.4201
-0.4148 17.8526 -2.3092 2.2177 -1.7120 -2.2920 0.0000 0.0000 0.0000 -20.8499 -1.8084 -6.1575 1.9170 8.6909 24.8331 0.9489 4.8702 -20.7802 0.4751 -4.4206 -12.2630 0.0000 0.0000 0.0000 16.8556 5.9366 -9.3863 -2.5068 -9.8503 28.4934 -0.7262 -6.1023 -19.4523 -0.1842 2.7645 -7.6237 0.0075 1.9074 5.7777 -1.0985 2.5325 3.1893 -1.2716 1.2759 0.0942 -4.9904 -3.0320 -0.6052 3.3087 -4.2691 15.0626 1.6590 -2.1773 4.7921 -0.0000 0.0000 0.0000 60.7266 -49.0814 -74.0596 44.2772 -50.4094 -21.6803 -0.0000 0.0000 -63.1060 2.9038 23.4865 1.1581 -7.1250 0.0000 -0.0000 -26.3950 51.5052 -4.4922 -0.0000 0.0000 0.0000 -55.1295 44.7266 -63.9973 -43.4661 49.9945 -21.0571 0.0000 -0.0000 -70.1261 -12.1914 19.0781 -4.0394 7.1250 -0.0000 -0.0000 10.4006 -10.7415 8.4236
-0.4118 17.8534 -2.3154 2.1807 -1.7785 -2.2583 0.0000 0.0000 0.0000 -20.8073 -1.7713 -6.2212 1.9134 8.6832 24.8093 0.9445 4.8833 -20.7477 0.4847 -4.4641 -12.3862 0.0000 0.0000 0.0000 16.8978 6.0514 -9.4137 -2.5052 -9.8474 28.4839 -0.7192 -6.1448 -19.4118 -0.1850 2.7701 -7.6393 0.0079 1.9426 5.7582 -1.0613 2.5795 3.1844 -1.2356 1.2990 0.0994 -5.0046 -3.0533 -0.4942 3.3000 -4.2983 14.9359 1.6595 -2.1937 4.7361 0.0000 -0.0000 0.0000 60.5766 -49.0879 -73.8299 44.3659 -50.4540 -21.7487 -0.0000 0.0000 -63.1710 2.8955 23.4699 1.1540 -7.1250 0.0000 -0.0000 -26.3932 51.4891 -4.4810 0.0000 -0.0000 0.0000 -54.9595 44.7235 -63.6869 -43.6246 50.0766 -21.1786 0.0000 -0.0000 -70.1554 -12.2351 19.2808 -4.0956 7.1250 -0.0000 -0.0000 10.3753 -10.5347 8.4468
-0.4076 17.8550 -2.3213 2.2097 -1.8001 -2.2701 0.0000 0.0000 0.0000 -20.8463 -1.7560 -6.2442 1.9148 8.6862 24.8186 0.9440 4.8614 -20.7299 0.4842 -4.4620 -12.3802 0.0000 0.0000 0.0000 16.8585 6.1050 -9.3904 -2.5011 -9.8398 28.4596 -0.7160 -6.1668 -19.3953 -0.1893 2.8021 -7.7282 -0.0268 1.9794 5.7622 -1.0618 2.6271 3.2169 -1.2187 1.3226 0.1301 -4.9675 -3.0733 -0.4972 3.2956 -4.3254 14.8942 1.6508 -2.2050 4.7240 0.0000 -0.0000 0.0000 60.5343 -49.0838 -73.7295 44.4795 -50.5109 -21.8364 -0.0000 0.0000 -63.3364 2.9614 23.4853 1.1811 -7.1250 0.0000 -0.0000 -26.3411 51.5135 -4.4875 0.0000 -0.0000 0.0000 -54.7858 44.6616 -63.4158 -43.7512 50.1418 -21.2757 0.0000 -0.0000 -70.0956 -12.2608 19.2876 -4.1058 7.1250 -0.0000 -0.0000 10.3588 -10.5253 8.4349
-0.4026 17.8546 -2.3283 2.2407 -1.8147 -2.2720 0.0000 0.0000 0.0000 -20.8910 -1.7368 -6.2964 1.9192 8.6957 24.8481 0.9389 4.8883 -20.6992 0.4806 -4.4459 -12.3345 0.0000 0.0000 0.0000 16.8090 6.1151 -9.4175 -2.4991 -9.8363 28.4483 -0.7070 -6.2288 -19.3502 -0.2049 2.9145 -8.0407 -0.0485 1.9991 5.7799 -1.0717 2.6523 3.2427 -1.2182 1.3352 0.1468 -4.8965 -3.0865 -0.5068 3.2368 -4.3372 14.8345 1.6205 -2.2099 4.7050 0.0000 -0.0000 0.0000 60.4627 -49.0438 -73.5205 44.6174 -50.5796 -21.9428 -0.0000 0.0000 -63.5623 3.1390 23.4670 1.2511 -7.1250 0.0000 -0.0000 -26.1662 51.5262 -4.4626 0.0000 -0.0000 0.0000 -54.6477 44.6303 -63.1982 -43.9080 50.2222 -21.3962 0.0000 -0.0000 -70.0535 -12.4463 19.2439 -4.1606 7.1250 -0.0000 -0.0000 10.2384 -10.5509 8.3281
-0.3961 17.8546 -2.3350 2.2083 -1.8595 -2.2336 0.0000 0.0000 0.0000 -20.8709 -1.7471 -6.3713 1.9236 8.7050 24.8769 0.9476 4.8391 -20.7488 0.4397 -4.2548 -11.7947 0.0000 0.0000 0.0000 16.8141 6.1322 -9.4899 -2.4950 -9.8288 28.4242 -0.7014 -6.2161 -19.2829 -0.2097 2.9483 -8.1348 -0.0242 2.0077 5.7685 -1.0447 2.6651 3.2424 -1.2043 1.3416 0.1530 -4.8927 -3.0897 -0.4760 3.2043 -4.3373 14.7588 1.6106 -2.2117 4.6760 0.0000 -0.0000 0.0000 60.2357 -48.9786 -73.1381 44.7790 -50.6597 -22.0677 -0.0000 0.0000 -63.7389 3.1224 23.4837 1.2453 -7.1250 0.0000 -0.0000 -26.1912 51.5385 -4.4756 0.0000 -0.0000 0.0000 -54.5575 44.6448 -62.9756 -44.0586 50.2989 -21.5120 0.0000 -0.0000 -69.9500 -12.6229 19.2540 -4.2235 7.1250 -0.0000 -0.0000 10.1244 -10.5232 8.2381
-0.3901 17.8546 -2.3422 2.1398 -1.8666 -2.2331 0.0000 0.0000 0.0000 -20.8098 -1.7681 -6.4058 1.9285 8.7156 24.9095 0.9506 4.7868 -20.7448 0.4258 -4.1878 -11.6057 0.0000 0.0000 0.0000 16.8710 6.1377 -9.4887 -2.4874 -9.8149 28.3794 -0.6956 -6.2386 -19.2402 -0.2085 2.9401 -8.1122 0.0380 1.9981 5.7989 -1.0036 2.6553 3.2480 -1.1975 1.3372 0.1425 -4.9375 -3.0872 -0.4214 3.2004 -4.3323 14.7012 1.6181 -2.2122 4.6500 0.0000 -0.0000 0.0000 59.9953 -48.9194 -72.7583 44.9239 -50.7311 -22.1798 -0.0000 0.0000 -63.8571 2.9903 23.5866 1.1974 -7.1250 0.0000 -0.0000 -26.3732 51.6087 -4.5581 0.0000 -0.0000 0.0000 -54.4548 44.6374 -62.7093 -44.2071 50.3741 -21.6263 0.0000 -0.0000 -69.8555 -12.8080 19.2396 -4.2842 7.1250 -0.0000 -0.0000 10.0045 -10.5192 8.1382
-0.3845 17.8562 -2.3474 2.0724 -1.8418 -2.2323 0.0000 0.0000 0.0000 -20.7514 -1.8102 -6.4332 1.9339 8.7269 24.9448 0.9472 4.8021 -20.7229 0.4468 -4.2886 -11.8899 0.0000 0.0000 0.0000 16.9297 6.1321 -9.4541 -2.4743 -9.7911 28.3028 -0.6836 -6.3085 -19.1686 -0.2164 2.9950 -8.2649 0.1086 1.9749 5.8242 -0.9759 2.6278 3.2479 -1.2080 1.3240 0.1296 -4.8906 -3.0725 -0.3918 3.1350 -4.3075 14.7004 1.5919 -2.2013 4.6414 0.0000 -0.0000 0.0000 59.7995 -48.8983 -72.4330 45.0360 -50.7861 -22.2666 -0.0000 0.0000 -63.9276 2.8738 23.6990 1.1559 -7.1250 0.0000 -0.0000 -26.5468 51.6899 -4.6472 0.0000 -0.0000 0.0000 -54.3162 44.6251 -62.4035 -44.3683 50.4552 -21.7505 0.0000 -0.0000 -69.9010 -12.8583 19.1726 -4.2872 7.1250 -0.0000 -0.0000 9.9708 -10.5813 8.0971
-0.3786 17.8583 -2.3523 2.0740 -1.8703 -2.2131 0.0000 0.0000 0.0000 -20.7696 -1.8076 -6.4737 1.9339 8.7270 24.9449 0.9481 4.7919 -20.7246 0.4301 -4.2087 -11.6646 0.0000 0.0000 0.0000 16.9061 6.1702 -9.4627 -2.4655 -9.7749 28.2508 -0.6788 -6.3188 -19.1259 -0.2173 3.0011 -8.2818 0.1582 1.9859 5.8362 -1.0029 2.6446 3.2425 -1.2648 1.3333 0.1214 -4.8385 -3.0758 -0.3738 3.1386 -4.3159 14.7088 1.5843 -2.2027 4.6402 -0.0000 0.0000 0.0000 59.7361 -48.9232 -72.2305 45.1521 -50.8428 -22.3566 -0.0000 0.0000 -64.0522 2.7129 23.7763 1.0944 -7.1250 0.0000 -0.0000 -26.7414 51.7323 -4.7147 -0.0000 0.0000 0.0000 -54.1402 44.6126 -62.0863 -44.4511 50.4967 -21.8144 0.0000 -0.0000 -69.9545 -12.9895 19.2717 -4.3538 7.1250 -0.0000 -0.0000 9.8878 -10.4688 8.0506
-0.3729 17.8602 -2.3568 2.0114 -1.8845 -2.1739 0.0000 0.0000 0.0000 -20.7180 -1.8117 -6.5281 1.9330 8.7251 24.9392 0.9435 4.8360 -20.7094 0.4427 -4.2691 -11.8349 0.0000 0.0000 0.0000 16.9560 6.1855 -9.4915 -2.4579 -9.7610 28.2061 -0.6749 -6.3328 -19.0961 -0.2193 3.0144 -8.3188 0.2384 1.9694 5.8126 -0.9763 2.6269 3.2569 -1.2802 1.3254 0.1512 -4.9157 -3.0596 -0.4145 3.1912 -4.2952 14.6992 1.6135 -2.1935 4.6459 0.0000 -0.0000 0.0000 59.5072 -48.8937 -71.9022 45.3423 -50.9351 -22.5042 -0.0000 0.0000 -64.1761 2.7175 23.7320 1.0944 -7.1250 0.0000 -0.0000 -26.7109 51.6936 -4.6821 0.0000 -0.0000 0.0000 -54.0522 44.6278 -61.8695 -44.6216 50.5817 -21.9460 0.0000 -0.0000 -70.0017 -13.1372 19.3119 -4.4136 7.1250 -0.0000 -0.0000 9.7932 -10.4134 7.9824
-0.3672 17.8612 -2.3630 2.1102 -1.8955 -2.1492 0.0000 0.0000 0.0000 -20.8464 -1.8306 -6.5653 1.9302 8.7191 24.9204 0.9440 4.8129 -20.6991 0.4261 -4.1894 -11.6101 0.0000 0.0000 0.0000 16.8179 6.1697 -9.5488 -2.4549 -9.7555 28.1885 -0.6705 -6.3193 -19.0403 -0.2251 3.0538 -8.4286 0.1649 1.9638 5.8294 -1.0018 2.6159 3.2826 -1.2647 1.3193 0.1660 -5.0007 -3.0552 -0.4800 3.2634 -4.2913 14.6865 1.6489 -2.1915 4.6561 0.0000 0.0000 0.0000 59.2944 -48.8469 -71.5691 45.5758 -51.0474 -22.6856 -0.0000 0.0000 -64.2431 2.8435 23.6747 1.1426 -7.1250 0.0000 -0.0000 -26.5606 51.6633 -4.6318 0.0000 0.0000 0.0000 -53.9351 44.6318 -61.6946 -44.8496 50.6946 -22.1223 0.0000 -0.0000 -70.1357 -13.1244 19.1325 -4.3699 7.1250 -0.0000 -0.0000 9.7979 -10.5947 7.9496
-0.3622 17.8610 -2.3702 2.1443 -1.9319 -2.1397 0.0000 0.0000 0.0000 -20.8996 -1.7978 -6.6022 1.9284 8.7154 24.9090 0.9416 4.8104 -20.6760 0.4400 -4.2565 -11.7994 0.0000 0.0000 0.0000 16.7570 6.1966 -9.5806 -2.4542 -9.7541 28.1840 -0.6679 -6.3135 -19.0081 -0.2244 3.0490 -8.4152 0.1434 1.9725 5.8686 -1.0050 2.6261 3.2784 -1.2582 1.3240 0.1393 -5.0318 -3.0578 -0.3367 3.2877 -4.3010 14.5969 1.6637 -2.1978 4.6062 0.0000 0.0000 0.0000 59.0673 -48.8918 -71.2203 45.8237 -51.1657 -22.8786 -0.0000 0.0000 -64.2602 2.9749 23.6823 1.1958 -7.1250 0.0000 -0.0000 -26.4434 51.6917 -4.6281 0.0000 0.0000 0.0000 -53.7963 44.6766 -61.4879 -45.0111 50.7739 -22.2473 0.0000 -0.0000 -70.2498 -13.2092 19.0669 -4.3846 7.1250 -0.0000 -0.0000 9.7416 -10.6520 7.8910
-0.3587 17.8623 -2.3761 2.1450 -1.9541 -2.0893 0.0000 0.0000 0.0000 -20.9076 -1.8054 -6.6752 1.9261 8.7105 24.8937 0.9378 4.8383 -20.6572 0.4435 -4.2728 -11.8454 0.0000 0.0000 0.0000 16.7301 6.2469 -9.6637 -2.4577 -9.7606 28.2048 -0.6686 -6.3081 -19.0117 -0.2217 3.0309 -8.3647 0.1669 1.9999 5.8514 -1.0343 2.6636 3.2677 -1.3030 1.3433 0.1412 -4.9733 -3.0802 -0.2431 3.3173 -4.3412 14.5565 1.6632 -2.2137 4.5791 -0.0000 0.0000 0.0000 58.9733 -48.9602 -70.9393 46.1176 -51.3044 -23.1077 -0.0000 0.0000 -64.3248 3.1308 23.8447 1.2667 -7.1250 0.0000 -0.0000 -26.3942 51.8627 -4.7341 -0.0000 0.0000 0.0000 -53.5009 44.6719 -61.1463 -45.2405 50.8858 -22.4252 0.0000 -0.0000 -70.3878 -13.3857 19.1318 -4.4596 7.1250 -0.0000 -0.0000 9.6287 -10.5689 7.8133
